<svg width="62" height="62" viewBox="0 0 62 62" fill="none" xmlns="http://www.w3.org/2000/svg">
<g id="logo">
<path id="Vector" d="M30.9999 0.582645C14.2276 0.582645 0.582245 14.2278 0.582245 30.9994C0.582245 35.5988 1.58436 40.0193 3.56137 44.1394L3.65491 44.3361L5.54662 43.4279L5.45103 43.231C3.61397 39.4 2.68184 35.2843 2.68184 30.9994C2.68184 15.385 15.3848 2.68224 30.9999 2.68224C46.6152 2.68224 59.318 15.385 59.318 30.9994C59.318 46.6145 46.6152 59.3184 30.9999 59.3184C27.7944 59.3184 24.6895 58.6101 23.35 58.2609V12.5986H21.2504L21.2539 59.8366L21.9953 60.0623C22.4483 60.2011 26.5505 61.418 30.9999 61.418C47.7724 61.418 61.4178 47.7719 61.4178 30.9994C61.4178 14.2278 47.7724 0.582645 30.9999 0.582645Z" fill="#FFE781"/>
</g>
</svg>
